<mxfile host="app.diagrams.net" agent="Mozilla/5.0 (Windows NT 10.0; Win64; x64) AppleWebKit/537.36 (KHTML, like Gecko) Chrome/133.0.0.0 Safari/537.36" version="26.0.16">
  <diagram name="Page-1" id="c4acf3e9-155e-7222-9cf6-157b1a14988f">
    <mxGraphModel dx="1366" dy="2920" grid="1" gridSize="10" guides="1" tooltips="1" connect="1" arrows="1" fold="1" page="1" pageScale="1" pageWidth="850" pageHeight="1100" background="none" math="0" shadow="0">
      <root>
        <mxCell id="0" />
        <mxCell id="1" parent="0" />
        <mxCell id="pYM4KknxGki9qGqo0QUS-39" value="User" style="swimlane;fontStyle=1;align=center;verticalAlign=top;childLayout=stackLayout;horizontal=1;startSize=26;horizontalStack=0;resizeParent=1;resizeParentMax=0;resizeLast=0;collapsible=1;marginBottom=0;whiteSpace=wrap;html=1;" parent="1" vertex="1">
          <mxGeometry x="70" y="160" width="210" height="502" as="geometry" />
        </mxCell>
        <mxCell id="pYM4KknxGki9qGqo0QUS-69" value="+ FName&amp;nbsp;: string&amp;nbsp;" style="text;strokeColor=none;fillColor=none;align=left;verticalAlign=top;spacingLeft=4;spacingRight=4;overflow=hidden;rotatable=0;points=[[0,0.5],[1,0.5]];portConstraint=eastwest;whiteSpace=wrap;html=1;" parent="pYM4KknxGki9qGqo0QUS-39" vertex="1">
          <mxGeometry y="26" width="210" height="26" as="geometry" />
        </mxCell>
        <mxCell id="pYM4KknxGki9qGqo0QUS-73" value="+ LName&amp;nbsp;: string&amp;nbsp;" style="text;strokeColor=none;fillColor=none;align=left;verticalAlign=top;spacingLeft=4;spacingRight=4;overflow=hidden;rotatable=0;points=[[0,0.5],[1,0.5]];portConstraint=eastwest;whiteSpace=wrap;html=1;" parent="pYM4KknxGki9qGqo0QUS-39" vertex="1">
          <mxGeometry y="52" width="210" height="26" as="geometry" />
        </mxCell>
        <mxCell id="pYM4KknxGki9qGqo0QUS-72" value="+ streetAdd: string&amp;nbsp;" style="text;strokeColor=none;fillColor=none;align=left;verticalAlign=top;spacingLeft=4;spacingRight=4;overflow=hidden;rotatable=0;points=[[0,0.5],[1,0.5]];portConstraint=eastwest;whiteSpace=wrap;html=1;" parent="pYM4KknxGki9qGqo0QUS-39" vertex="1">
          <mxGeometry y="78" width="210" height="26" as="geometry" />
        </mxCell>
        <mxCell id="pYM4KknxGki9qGqo0QUS-82" value="+ apt: string" style="text;strokeColor=none;fillColor=none;align=left;verticalAlign=top;spacingLeft=4;spacingRight=4;overflow=hidden;rotatable=0;points=[[0,0.5],[1,0.5]];portConstraint=eastwest;whiteSpace=wrap;html=1;" parent="pYM4KknxGki9qGqo0QUS-39" vertex="1">
          <mxGeometry y="104" width="210" height="26" as="geometry" />
        </mxCell>
        <mxCell id="pYM4KknxGki9qGqo0QUS-71" value="+ state: string&amp;nbsp;" style="text;strokeColor=none;fillColor=none;align=left;verticalAlign=top;spacingLeft=4;spacingRight=4;overflow=hidden;rotatable=0;points=[[0,0.5],[1,0.5]];portConstraint=eastwest;whiteSpace=wrap;html=1;" parent="pYM4KknxGki9qGqo0QUS-39" vertex="1">
          <mxGeometry y="130" width="210" height="26" as="geometry" />
        </mxCell>
        <mxCell id="pYM4KknxGki9qGqo0QUS-70" value="+ city: string&amp;nbsp;" style="text;strokeColor=none;fillColor=none;align=left;verticalAlign=top;spacingLeft=4;spacingRight=4;overflow=hidden;rotatable=0;points=[[0,0.5],[1,0.5]];portConstraint=eastwest;whiteSpace=wrap;html=1;" parent="pYM4KknxGki9qGqo0QUS-39" vertex="1">
          <mxGeometry y="156" width="210" height="26" as="geometry" />
        </mxCell>
        <mxCell id="pYM4KknxGki9qGqo0QUS-78" value="+ zipCode: string" style="text;strokeColor=none;fillColor=none;align=left;verticalAlign=top;spacingLeft=4;spacingRight=4;overflow=hidden;rotatable=0;points=[[0,0.5],[1,0.5]];portConstraint=eastwest;whiteSpace=wrap;html=1;" parent="pYM4KknxGki9qGqo0QUS-39" vertex="1">
          <mxGeometry y="182" width="210" height="26" as="geometry" />
        </mxCell>
        <mxCell id="pYM4KknxGki9qGqo0QUS-77" value="+ stName: string" style="text;strokeColor=none;fillColor=none;align=left;verticalAlign=top;spacingLeft=4;spacingRight=4;overflow=hidden;rotatable=0;points=[[0,0.5],[1,0.5]];portConstraint=eastwest;whiteSpace=wrap;html=1;" parent="pYM4KknxGki9qGqo0QUS-39" vertex="1">
          <mxGeometry y="208" width="210" height="26" as="geometry" />
        </mxCell>
        <mxCell id="pYM4KknxGki9qGqo0QUS-80" value="+ stNum: string" style="text;strokeColor=none;fillColor=none;align=left;verticalAlign=top;spacingLeft=4;spacingRight=4;overflow=hidden;rotatable=0;points=[[0,0.5],[1,0.5]];portConstraint=eastwest;whiteSpace=wrap;html=1;" parent="pYM4KknxGki9qGqo0QUS-39" vertex="1">
          <mxGeometry y="234" width="210" height="26" as="geometry" />
        </mxCell>
        <mxCell id="pYM4KknxGki9qGqo0QUS-81" value="+ country: string" style="text;strokeColor=none;fillColor=none;align=left;verticalAlign=top;spacingLeft=4;spacingRight=4;overflow=hidden;rotatable=0;points=[[0,0.5],[1,0.5]];portConstraint=eastwest;whiteSpace=wrap;html=1;" parent="pYM4KknxGki9qGqo0QUS-39" vertex="1">
          <mxGeometry y="260" width="210" height="26" as="geometry" />
        </mxCell>
        <mxCell id="pYM4KknxGki9qGqo0QUS-83" value="+ age: int or string" style="text;strokeColor=none;fillColor=none;align=left;verticalAlign=top;spacingLeft=4;spacingRight=4;overflow=hidden;rotatable=0;points=[[0,0.5],[1,0.5]];portConstraint=eastwest;whiteSpace=wrap;html=1;" parent="pYM4KknxGki9qGqo0QUS-39" vertex="1">
          <mxGeometry y="286" width="210" height="26" as="geometry" />
        </mxCell>
        <mxCell id="pYM4KknxGki9qGqo0QUS-79" value="+ email: string" style="text;strokeColor=none;fillColor=none;align=left;verticalAlign=top;spacingLeft=4;spacingRight=4;overflow=hidden;rotatable=0;points=[[0,0.5],[1,0.5]];portConstraint=eastwest;whiteSpace=wrap;html=1;" parent="pYM4KknxGki9qGqo0QUS-39" vertex="1">
          <mxGeometry y="312" width="210" height="26" as="geometry" />
        </mxCell>
        <mxCell id="pYM4KknxGki9qGqo0QUS-104" value="+ phNum: string" style="text;strokeColor=none;fillColor=none;align=left;verticalAlign=top;spacingLeft=4;spacingRight=4;overflow=hidden;rotatable=0;points=[[0,0.5],[1,0.5]];portConstraint=eastwest;whiteSpace=wrap;html=1;" parent="pYM4KknxGki9qGqo0QUS-39" vertex="1">
          <mxGeometry y="338" width="210" height="26" as="geometry" />
        </mxCell>
        <mxCell id="pYM4KknxGki9qGqo0QUS-41" value="" style="line;strokeWidth=1;fillColor=none;align=left;verticalAlign=middle;spacingTop=-1;spacingLeft=3;spacingRight=3;rotatable=0;labelPosition=right;points=[];portConstraint=eastwest;strokeColor=inherit;" parent="pYM4KknxGki9qGqo0QUS-39" vertex="1">
          <mxGeometry y="364" width="210" height="8" as="geometry" />
        </mxCell>
        <mxCell id="pYM4KknxGki9qGqo0QUS-42" value="+ getStreetNum(streetAdd): string" style="text;strokeColor=none;fillColor=none;align=left;verticalAlign=top;spacingLeft=4;spacingRight=4;overflow=hidden;rotatable=0;points=[[0,0.5],[1,0.5]];portConstraint=eastwest;whiteSpace=wrap;html=1;" parent="pYM4KknxGki9qGqo0QUS-39" vertex="1">
          <mxGeometry y="372" width="210" height="26" as="geometry" />
        </mxCell>
        <mxCell id="pYM4KknxGki9qGqo0QUS-86" value="+ getStreenName(streeAdd): string" style="text;strokeColor=none;fillColor=none;align=left;verticalAlign=top;spacingLeft=4;spacingRight=4;overflow=hidden;rotatable=0;points=[[0,0.5],[1,0.5]];portConstraint=eastwest;whiteSpace=wrap;html=1;" parent="pYM4KknxGki9qGqo0QUS-39" vertex="1">
          <mxGeometry y="398" width="210" height="26" as="geometry" />
        </mxCell>
        <mxCell id="pYM4KknxGki9qGqo0QUS-85" value="+ register(user): Rider" style="text;strokeColor=none;fillColor=none;align=left;verticalAlign=top;spacingLeft=4;spacingRight=4;overflow=hidden;rotatable=0;points=[[0,0.5],[1,0.5]];portConstraint=eastwest;whiteSpace=wrap;html=1;" parent="pYM4KknxGki9qGqo0QUS-39" vertex="1">
          <mxGeometry y="424" width="210" height="26" as="geometry" />
        </mxCell>
        <mxCell id="pYM4KknxGki9qGqo0QUS-105" value="+ login(user): Volunteer" style="text;strokeColor=none;fillColor=none;align=left;verticalAlign=top;spacingLeft=4;spacingRight=4;overflow=hidden;rotatable=0;points=[[0,0.5],[1,0.5]];portConstraint=eastwest;whiteSpace=wrap;html=1;" parent="pYM4KknxGki9qGqo0QUS-39" vertex="1">
          <mxGeometry y="450" width="210" height="26" as="geometry" />
        </mxCell>
        <mxCell id="pYM4KknxGki9qGqo0QUS-84" value="+ login(user): Administrator" style="text;strokeColor=none;fillColor=none;align=left;verticalAlign=top;spacingLeft=4;spacingRight=4;overflow=hidden;rotatable=0;points=[[0,0.5],[1,0.5]];portConstraint=eastwest;whiteSpace=wrap;html=1;" parent="pYM4KknxGki9qGqo0QUS-39" vertex="1">
          <mxGeometry y="476" width="210" height="26" as="geometry" />
        </mxCell>
        <mxCell id="pYM4KknxGki9qGqo0QUS-43" value="Administrator" style="swimlane;fontStyle=1;align=center;verticalAlign=top;childLayout=stackLayout;horizontal=1;startSize=26;horizontalStack=0;resizeParent=1;resizeParentMax=0;resizeLast=0;collapsible=1;marginBottom=0;whiteSpace=wrap;html=1;" parent="1" vertex="1">
          <mxGeometry x="360" y="636" width="260" height="136" as="geometry" />
        </mxCell>
        <mxCell id="pYM4KknxGki9qGqo0QUS-93" value="&lt;span style=&quot;color: rgb(0, 0, 0); font-family: Helvetica; font-size: 12px; font-style: normal; font-variant-ligatures: normal; font-variant-caps: normal; font-weight: 400; letter-spacing: normal; orphans: 2; text-align: left; text-indent: 0px; text-transform: none; widows: 2; word-spacing: 0px; -webkit-text-stroke-width: 0px; white-space: normal; background-color: rgb(251, 251, 251); text-decoration-thickness: initial; text-decoration-style: initial; text-decoration-color: initial; display: inline !important; float: none;&quot;&gt;+ login_id: string&lt;/span&gt;" style="text;whiteSpace=wrap;html=1;" parent="pYM4KknxGki9qGqo0QUS-43" vertex="1">
          <mxGeometry y="26" width="260" height="24" as="geometry" />
        </mxCell>
        <mxCell id="pYM4KknxGki9qGqo0QUS-66" value="+ job: string (or maybe a Job class type)" style="text;strokeColor=none;fillColor=none;align=left;verticalAlign=top;spacingLeft=4;spacingRight=4;overflow=hidden;rotatable=0;points=[[0,0.5],[1,0.5]];portConstraint=eastwest;whiteSpace=wrap;html=1;" parent="pYM4KknxGki9qGqo0QUS-43" vertex="1">
          <mxGeometry y="50" width="260" height="26" as="geometry" />
        </mxCell>
        <mxCell id="pYM4KknxGki9qGqo0QUS-45" value="" style="line;strokeWidth=1;fillColor=none;align=left;verticalAlign=middle;spacingTop=-1;spacingLeft=3;spacingRight=3;rotatable=0;labelPosition=right;points=[];portConstraint=eastwest;strokeColor=inherit;" parent="pYM4KknxGki9qGqo0QUS-43" vertex="1">
          <mxGeometry y="76" width="260" height="8" as="geometry" />
        </mxCell>
        <mxCell id="pYM4KknxGki9qGqo0QUS-46" value="+ modData(): void" style="text;strokeColor=none;fillColor=none;align=left;verticalAlign=top;spacingLeft=4;spacingRight=4;overflow=hidden;rotatable=0;points=[[0,0.5],[1,0.5]];portConstraint=eastwest;whiteSpace=wrap;html=1;" parent="pYM4KknxGki9qGqo0QUS-43" vertex="1">
          <mxGeometry y="84" width="260" height="26" as="geometry" />
        </mxCell>
        <mxCell id="pYM4KknxGki9qGqo0QUS-94" value="+ accessData(): void" style="text;strokeColor=none;fillColor=none;align=left;verticalAlign=top;spacingLeft=4;spacingRight=4;overflow=hidden;rotatable=0;points=[[0,0.5],[1,0.5]];portConstraint=eastwest;whiteSpace=wrap;html=1;" parent="pYM4KknxGki9qGqo0QUS-43" vertex="1">
          <mxGeometry y="110" width="260" height="26" as="geometry" />
        </mxCell>
        <mxCell id="pYM4KknxGki9qGqo0QUS-47" value="Volunteer" style="swimlane;fontStyle=1;align=center;verticalAlign=top;childLayout=stackLayout;horizontal=1;startSize=26;horizontalStack=0;resizeParent=1;resizeParentMax=0;resizeLast=0;collapsible=1;marginBottom=0;whiteSpace=wrap;html=1;" parent="1" vertex="1">
          <mxGeometry x="360" y="430" width="250" height="138" as="geometry" />
        </mxCell>
        <mxCell id="pYM4KknxGki9qGqo0QUS-65" value="+ login_id: string" style="text;strokeColor=none;fillColor=none;align=left;verticalAlign=top;spacingLeft=4;spacingRight=4;overflow=hidden;rotatable=0;points=[[0,0.5],[1,0.5]];portConstraint=eastwest;whiteSpace=wrap;html=1;" parent="pYM4KknxGki9qGqo0QUS-47" vertex="1">
          <mxGeometry y="26" width="250" height="26" as="geometry" />
        </mxCell>
        <mxCell id="pYM4KknxGki9qGqo0QUS-67" value="+ volJob: string (or maybe a Job class type)" style="text;strokeColor=none;fillColor=none;align=left;verticalAlign=top;spacingLeft=4;spacingRight=4;overflow=hidden;rotatable=0;points=[[0,0.5],[1,0.5]];portConstraint=eastwest;whiteSpace=wrap;html=1;" parent="pYM4KknxGki9qGqo0QUS-47" vertex="1">
          <mxGeometry y="52" width="250" height="26" as="geometry" />
        </mxCell>
        <mxCell id="pYM4KknxGki9qGqo0QUS-68" value="+ item: attribute" style="text;strokeColor=none;fillColor=none;align=left;verticalAlign=top;spacingLeft=4;spacingRight=4;overflow=hidden;rotatable=0;points=[[0,0.5],[1,0.5]];portConstraint=eastwest;whiteSpace=wrap;html=1;" parent="pYM4KknxGki9qGqo0QUS-47" vertex="1">
          <mxGeometry y="78" width="250" height="26" as="geometry" />
        </mxCell>
        <mxCell id="pYM4KknxGki9qGqo0QUS-49" value="" style="line;strokeWidth=1;fillColor=none;align=left;verticalAlign=middle;spacingTop=-1;spacingLeft=3;spacingRight=3;rotatable=0;labelPosition=right;points=[];portConstraint=eastwest;strokeColor=inherit;" parent="pYM4KknxGki9qGqo0QUS-47" vertex="1">
          <mxGeometry y="104" width="250" height="8" as="geometry" />
        </mxCell>
        <mxCell id="pYM4KknxGki9qGqo0QUS-50" value="+ accessData(): void" style="text;strokeColor=none;fillColor=none;align=left;verticalAlign=top;spacingLeft=4;spacingRight=4;overflow=hidden;rotatable=0;points=[[0,0.5],[1,0.5]];portConstraint=eastwest;whiteSpace=wrap;html=1;" parent="pYM4KknxGki9qGqo0QUS-47" vertex="1">
          <mxGeometry y="112" width="250" height="26" as="geometry" />
        </mxCell>
        <mxCell id="pYM4KknxGki9qGqo0QUS-51" value="Rider" style="swimlane;fontStyle=1;align=center;verticalAlign=top;childLayout=stackLayout;horizontal=1;startSize=26;horizontalStack=0;resizeParent=1;resizeParentMax=0;resizeLast=0;collapsible=1;marginBottom=0;whiteSpace=wrap;html=1;" parent="1" vertex="1">
          <mxGeometry x="360" y="-110" width="250" height="462" as="geometry">
            <mxRectangle x="360" y="120" width="70" height="30" as="alternateBounds" />
          </mxGeometry>
        </mxCell>
        <mxCell id="pYM4KknxGki9qGqo0QUS-97" value="+ regStatus: bool" style="text;strokeColor=none;fillColor=none;align=left;verticalAlign=top;spacingLeft=4;spacingRight=4;overflow=hidden;rotatable=0;points=[[0,0.5],[1,0.5]];portConstraint=eastwest;whiteSpace=wrap;html=1;" parent="pYM4KknxGki9qGqo0QUS-51" vertex="1">
          <mxGeometry y="26" width="250" height="26" as="geometry" />
        </mxCell>
        <mxCell id="pYM4KknxGki9qGqo0QUS-64" value="+ event1: event" style="text;strokeColor=none;fillColor=none;align=left;verticalAlign=top;spacingLeft=4;spacingRight=4;overflow=hidden;rotatable=0;points=[[0,0.5],[1,0.5]];portConstraint=eastwest;whiteSpace=wrap;html=1;" parent="pYM4KknxGki9qGqo0QUS-51" vertex="1">
          <mxGeometry y="52" width="250" height="26" as="geometry" />
        </mxCell>
        <mxCell id="pYM4KknxGki9qGqo0QUS-90" value="+ event2: event" style="text;strokeColor=none;fillColor=none;align=left;verticalAlign=top;spacingLeft=4;spacingRight=4;overflow=hidden;rotatable=0;points=[[0,0.5],[1,0.5]];portConstraint=eastwest;whiteSpace=wrap;html=1;" parent="pYM4KknxGki9qGqo0QUS-51" vertex="1">
          <mxGeometry y="78" width="250" height="26" as="geometry" />
        </mxCell>
        <mxCell id="pYM4KknxGki9qGqo0QUS-89" value="+ event3: event" style="text;strokeColor=none;fillColor=none;align=left;verticalAlign=top;spacingLeft=4;spacingRight=4;overflow=hidden;rotatable=0;points=[[0,0.5],[1,0.5]];portConstraint=eastwest;whiteSpace=wrap;html=1;" parent="pYM4KknxGki9qGqo0QUS-51" vertex="1">
          <mxGeometry y="104" width="250" height="26" as="geometry" />
        </mxCell>
        <mxCell id="pYM4KknxGki9qGqo0QUS-88" value="+ event4: event" style="text;strokeColor=none;fillColor=none;align=left;verticalAlign=top;spacingLeft=4;spacingRight=4;overflow=hidden;rotatable=0;points=[[0,0.5],[1,0.5]];portConstraint=eastwest;whiteSpace=wrap;html=1;" parent="pYM4KknxGki9qGqo0QUS-51" vertex="1">
          <mxGeometry y="130" width="250" height="26" as="geometry" />
        </mxCell>
        <mxCell id="pYM4KknxGki9qGqo0QUS-98" value="+ eventNum: int" style="text;strokeColor=none;fillColor=none;align=left;verticalAlign=top;spacingLeft=4;spacingRight=4;overflow=hidden;rotatable=0;points=[[0,0.5],[1,0.5]];portConstraint=eastwest;whiteSpace=wrap;html=1;" parent="pYM4KknxGki9qGqo0QUS-51" vertex="1">
          <mxGeometry y="156" width="250" height="26" as="geometry" />
        </mxCell>
        <mxCell id="pYM4KknxGki9qGqo0QUS-87" value="+ events: array/list" style="text;strokeColor=none;fillColor=none;align=left;verticalAlign=top;spacingLeft=4;spacingRight=4;overflow=hidden;rotatable=0;points=[[0,0.5],[1,0.5]];portConstraint=eastwest;whiteSpace=wrap;html=1;" parent="pYM4KknxGki9qGqo0QUS-51" vertex="1">
          <mxGeometry y="182" width="250" height="26" as="geometry" />
        </mxCell>
        <mxCell id="pYM4KknxGki9qGqo0QUS-101" value="+ emerConFName: string" style="text;strokeColor=none;fillColor=none;align=left;verticalAlign=top;spacingLeft=4;spacingRight=4;overflow=hidden;rotatable=0;points=[[0,0.5],[1,0.5]];portConstraint=eastwest;whiteSpace=wrap;html=1;" parent="pYM4KknxGki9qGqo0QUS-51" vertex="1">
          <mxGeometry y="208" width="250" height="26" as="geometry" />
        </mxCell>
        <mxCell id="pYM4KknxGki9qGqo0QUS-103" value="+ emerConLName: string" style="text;strokeColor=none;fillColor=none;align=left;verticalAlign=top;spacingLeft=4;spacingRight=4;overflow=hidden;rotatable=0;points=[[0,0.5],[1,0.5]];portConstraint=eastwest;whiteSpace=wrap;html=1;" parent="pYM4KknxGki9qGqo0QUS-51" vertex="1">
          <mxGeometry y="234" width="250" height="26" as="geometry" />
        </mxCell>
        <mxCell id="pYM4KknxGki9qGqo0QUS-102" value="+ emerConPhNum: string" style="text;strokeColor=none;fillColor=none;align=left;verticalAlign=top;spacingLeft=4;spacingRight=4;overflow=hidden;rotatable=0;points=[[0,0.5],[1,0.5]];portConstraint=eastwest;whiteSpace=wrap;html=1;" parent="pYM4KknxGki9qGqo0QUS-51" vertex="1">
          <mxGeometry y="260" width="250" height="26" as="geometry" />
        </mxCell>
        <mxCell id="pYM4KknxGki9qGqo0QUS-100" value="+ emerConRel: string" style="text;strokeColor=none;fillColor=none;align=left;verticalAlign=top;spacingLeft=4;spacingRight=4;overflow=hidden;rotatable=0;points=[[0,0.5],[1,0.5]];portConstraint=eastwest;whiteSpace=wrap;html=1;" parent="pYM4KknxGki9qGqo0QUS-51" vertex="1">
          <mxGeometry y="286" width="250" height="26" as="geometry" />
        </mxCell>
        <mxCell id="pYM4KknxGki9qGqo0QUS-99" value="+ item: attribute" style="text;strokeColor=none;fillColor=none;align=left;verticalAlign=top;spacingLeft=4;spacingRight=4;overflow=hidden;rotatable=0;points=[[0,0.5],[1,0.5]];portConstraint=eastwest;whiteSpace=wrap;html=1;" parent="pYM4KknxGki9qGqo0QUS-51" vertex="1">
          <mxGeometry y="312" width="250" height="26" as="geometry" />
        </mxCell>
        <mxCell id="pYM4KknxGki9qGqo0QUS-91" value="+ item: attribute" style="text;strokeColor=none;fillColor=none;align=left;verticalAlign=top;spacingLeft=4;spacingRight=4;overflow=hidden;rotatable=0;points=[[0,0.5],[1,0.5]];portConstraint=eastwest;whiteSpace=wrap;html=1;" parent="pYM4KknxGki9qGqo0QUS-51" vertex="1">
          <mxGeometry y="338" width="250" height="26" as="geometry" />
        </mxCell>
        <mxCell id="pYM4KknxGki9qGqo0QUS-53" value="" style="line;strokeWidth=1;fillColor=none;align=left;verticalAlign=middle;spacingTop=-1;spacingLeft=3;spacingRight=3;rotatable=0;labelPosition=right;points=[];portConstraint=eastwest;strokeColor=inherit;" parent="pYM4KknxGki9qGqo0QUS-51" vertex="1">
          <mxGeometry y="364" width="250" height="8" as="geometry" />
        </mxCell>
        <mxCell id="pYM4KknxGki9qGqo0QUS-92" value="+ method(type): type" style="text;strokeColor=none;fillColor=none;align=left;verticalAlign=top;spacingLeft=4;spacingRight=4;overflow=hidden;rotatable=0;points=[[0,0.5],[1,0.5]];portConstraint=eastwest;whiteSpace=wrap;html=1;" parent="pYM4KknxGki9qGqo0QUS-51" vertex="1">
          <mxGeometry y="372" width="250" height="30" as="geometry" />
        </mxCell>
        <mxCell id="pYM4KknxGki9qGqo0QUS-54" value="+ method(type): type" style="text;strokeColor=none;fillColor=none;align=left;verticalAlign=top;spacingLeft=4;spacingRight=4;overflow=hidden;rotatable=0;points=[[0,0.5],[1,0.5]];portConstraint=eastwest;whiteSpace=wrap;html=1;" parent="pYM4KknxGki9qGqo0QUS-51" vertex="1">
          <mxGeometry y="402" width="250" height="60" as="geometry" />
        </mxCell>
        <mxCell id="pYM4KknxGki9qGqo0QUS-106" value="RegistrationForm" style="swimlane;fontStyle=1;align=center;verticalAlign=top;childLayout=stackLayout;horizontal=1;startSize=26;horizontalStack=0;resizeParent=1;resizeParentMax=0;resizeLast=0;collapsible=1;marginBottom=0;whiteSpace=wrap;html=1;" parent="1" vertex="1">
          <mxGeometry x="650" y="35" width="160" height="86" as="geometry" />
        </mxCell>
        <mxCell id="pYM4KknxGki9qGqo0QUS-107" value="+ field: type" style="text;strokeColor=none;fillColor=none;align=left;verticalAlign=top;spacingLeft=4;spacingRight=4;overflow=hidden;rotatable=0;points=[[0,0.5],[1,0.5]];portConstraint=eastwest;whiteSpace=wrap;html=1;" parent="pYM4KknxGki9qGqo0QUS-106" vertex="1">
          <mxGeometry y="26" width="160" height="26" as="geometry" />
        </mxCell>
        <mxCell id="pYM4KknxGki9qGqo0QUS-108" value="" style="line;strokeWidth=1;fillColor=none;align=left;verticalAlign=middle;spacingTop=-1;spacingLeft=3;spacingRight=3;rotatable=0;labelPosition=right;points=[];portConstraint=eastwest;strokeColor=inherit;" parent="pYM4KknxGki9qGqo0QUS-106" vertex="1">
          <mxGeometry y="52" width="160" height="8" as="geometry" />
        </mxCell>
        <mxCell id="pYM4KknxGki9qGqo0QUS-109" value="+ method(type): type" style="text;strokeColor=none;fillColor=none;align=left;verticalAlign=top;spacingLeft=4;spacingRight=4;overflow=hidden;rotatable=0;points=[[0,0.5],[1,0.5]];portConstraint=eastwest;whiteSpace=wrap;html=1;" parent="pYM4KknxGki9qGqo0QUS-106" vertex="1">
          <mxGeometry y="60" width="160" height="26" as="geometry" />
        </mxCell>
        <mxCell id="pYM4KknxGki9qGqo0QUS-114" value="Event" style="swimlane;fontStyle=1;align=center;verticalAlign=top;childLayout=stackLayout;horizontal=1;startSize=26;horizontalStack=0;resizeParent=1;resizeParentMax=0;resizeLast=0;collapsible=1;marginBottom=0;whiteSpace=wrap;html=1;" parent="1" vertex="1">
          <mxGeometry x="650" y="160" width="160" height="86" as="geometry" />
        </mxCell>
        <mxCell id="pYM4KknxGki9qGqo0QUS-115" value="+ field: type" style="text;strokeColor=none;fillColor=none;align=left;verticalAlign=top;spacingLeft=4;spacingRight=4;overflow=hidden;rotatable=0;points=[[0,0.5],[1,0.5]];portConstraint=eastwest;whiteSpace=wrap;html=1;" parent="pYM4KknxGki9qGqo0QUS-114" vertex="1">
          <mxGeometry y="26" width="160" height="26" as="geometry" />
        </mxCell>
        <mxCell id="pYM4KknxGki9qGqo0QUS-116" value="" style="line;strokeWidth=1;fillColor=none;align=left;verticalAlign=middle;spacingTop=-1;spacingLeft=3;spacingRight=3;rotatable=0;labelPosition=right;points=[];portConstraint=eastwest;strokeColor=inherit;" parent="pYM4KknxGki9qGqo0QUS-114" vertex="1">
          <mxGeometry y="52" width="160" height="8" as="geometry" />
        </mxCell>
        <mxCell id="pYM4KknxGki9qGqo0QUS-117" value="+ method(type): type" style="text;strokeColor=none;fillColor=none;align=left;verticalAlign=top;spacingLeft=4;spacingRight=4;overflow=hidden;rotatable=0;points=[[0,0.5],[1,0.5]];portConstraint=eastwest;whiteSpace=wrap;html=1;" parent="pYM4KknxGki9qGqo0QUS-114" vertex="1">
          <mxGeometry y="60" width="160" height="26" as="geometry" />
        </mxCell>
        <mxCell id="pYM4KknxGki9qGqo0QUS-118" value="Map" style="swimlane;fontStyle=1;align=center;verticalAlign=top;childLayout=stackLayout;horizontal=1;startSize=26;horizontalStack=0;resizeParent=1;resizeParentMax=0;resizeLast=0;collapsible=1;marginBottom=0;whiteSpace=wrap;html=1;" parent="1" vertex="1">
          <mxGeometry x="650" y="292" width="160" height="86" as="geometry" />
        </mxCell>
        <mxCell id="pYM4KknxGki9qGqo0QUS-119" value="+ field: type" style="text;strokeColor=none;fillColor=none;align=left;verticalAlign=top;spacingLeft=4;spacingRight=4;overflow=hidden;rotatable=0;points=[[0,0.5],[1,0.5]];portConstraint=eastwest;whiteSpace=wrap;html=1;" parent="pYM4KknxGki9qGqo0QUS-118" vertex="1">
          <mxGeometry y="26" width="160" height="26" as="geometry" />
        </mxCell>
        <mxCell id="pYM4KknxGki9qGqo0QUS-120" value="" style="line;strokeWidth=1;fillColor=none;align=left;verticalAlign=middle;spacingTop=-1;spacingLeft=3;spacingRight=3;rotatable=0;labelPosition=right;points=[];portConstraint=eastwest;strokeColor=inherit;" parent="pYM4KknxGki9qGqo0QUS-118" vertex="1">
          <mxGeometry y="52" width="160" height="8" as="geometry" />
        </mxCell>
        <mxCell id="pYM4KknxGki9qGqo0QUS-121" value="+ method(type): type" style="text;strokeColor=none;fillColor=none;align=left;verticalAlign=top;spacingLeft=4;spacingRight=4;overflow=hidden;rotatable=0;points=[[0,0.5],[1,0.5]];portConstraint=eastwest;whiteSpace=wrap;html=1;" parent="pYM4KknxGki9qGqo0QUS-118" vertex="1">
          <mxGeometry y="60" width="160" height="26" as="geometry" />
        </mxCell>
        <mxCell id="pYM4KknxGki9qGqo0QUS-122" value="Page" style="swimlane;fontStyle=1;align=center;verticalAlign=top;childLayout=stackLayout;horizontal=1;startSize=26;horizontalStack=0;resizeParent=1;resizeParentMax=0;resizeLast=0;collapsible=1;marginBottom=0;whiteSpace=wrap;html=1;" parent="1" vertex="1">
          <mxGeometry x="60" y="-570" width="160" height="86" as="geometry" />
        </mxCell>
        <mxCell id="pYM4KknxGki9qGqo0QUS-123" value="+ field: type" style="text;strokeColor=none;fillColor=none;align=left;verticalAlign=top;spacingLeft=4;spacingRight=4;overflow=hidden;rotatable=0;points=[[0,0.5],[1,0.5]];portConstraint=eastwest;whiteSpace=wrap;html=1;" parent="pYM4KknxGki9qGqo0QUS-122" vertex="1">
          <mxGeometry y="26" width="160" height="26" as="geometry" />
        </mxCell>
        <mxCell id="pYM4KknxGki9qGqo0QUS-124" value="" style="line;strokeWidth=1;fillColor=none;align=left;verticalAlign=middle;spacingTop=-1;spacingLeft=3;spacingRight=3;rotatable=0;labelPosition=right;points=[];portConstraint=eastwest;strokeColor=inherit;" parent="pYM4KknxGki9qGqo0QUS-122" vertex="1">
          <mxGeometry y="52" width="160" height="8" as="geometry" />
        </mxCell>
        <mxCell id="pYM4KknxGki9qGqo0QUS-125" value="+ method(type): type" style="text;strokeColor=none;fillColor=none;align=left;verticalAlign=top;spacingLeft=4;spacingRight=4;overflow=hidden;rotatable=0;points=[[0,0.5],[1,0.5]];portConstraint=eastwest;whiteSpace=wrap;html=1;" parent="pYM4KknxGki9qGqo0QUS-122" vertex="1">
          <mxGeometry y="60" width="160" height="26" as="geometry" />
        </mxCell>
        <mxCell id="pYM4KknxGki9qGqo0QUS-126" value="RegistrationPage" style="swimlane;fontStyle=1;align=center;verticalAlign=top;childLayout=stackLayout;horizontal=1;startSize=26;horizontalStack=0;resizeParent=1;resizeParentMax=0;resizeLast=0;collapsible=1;marginBottom=0;whiteSpace=wrap;html=1;" parent="1" vertex="1">
          <mxGeometry x="280" y="-790" width="160" height="86" as="geometry" />
        </mxCell>
        <mxCell id="pYM4KknxGki9qGqo0QUS-127" value="+ field: type" style="text;strokeColor=none;fillColor=none;align=left;verticalAlign=top;spacingLeft=4;spacingRight=4;overflow=hidden;rotatable=0;points=[[0,0.5],[1,0.5]];portConstraint=eastwest;whiteSpace=wrap;html=1;" parent="pYM4KknxGki9qGqo0QUS-126" vertex="1">
          <mxGeometry y="26" width="160" height="26" as="geometry" />
        </mxCell>
        <mxCell id="pYM4KknxGki9qGqo0QUS-128" value="" style="line;strokeWidth=1;fillColor=none;align=left;verticalAlign=middle;spacingTop=-1;spacingLeft=3;spacingRight=3;rotatable=0;labelPosition=right;points=[];portConstraint=eastwest;strokeColor=inherit;" parent="pYM4KknxGki9qGqo0QUS-126" vertex="1">
          <mxGeometry y="52" width="160" height="8" as="geometry" />
        </mxCell>
        <mxCell id="pYM4KknxGki9qGqo0QUS-129" value="+ method(type): type" style="text;strokeColor=none;fillColor=none;align=left;verticalAlign=top;spacingLeft=4;spacingRight=4;overflow=hidden;rotatable=0;points=[[0,0.5],[1,0.5]];portConstraint=eastwest;whiteSpace=wrap;html=1;" parent="pYM4KknxGki9qGqo0QUS-126" vertex="1">
          <mxGeometry y="60" width="160" height="26" as="geometry" />
        </mxCell>
        <mxCell id="pYM4KknxGki9qGqo0QUS-130" value="EventsPage" style="swimlane;fontStyle=1;align=center;verticalAlign=top;childLayout=stackLayout;horizontal=1;startSize=26;horizontalStack=0;resizeParent=1;resizeParentMax=0;resizeLast=0;collapsible=1;marginBottom=0;whiteSpace=wrap;html=1;" parent="1" vertex="1">
          <mxGeometry x="280" y="-680" width="160" height="86" as="geometry" />
        </mxCell>
        <mxCell id="pYM4KknxGki9qGqo0QUS-131" value="+ field: type" style="text;strokeColor=none;fillColor=none;align=left;verticalAlign=top;spacingLeft=4;spacingRight=4;overflow=hidden;rotatable=0;points=[[0,0.5],[1,0.5]];portConstraint=eastwest;whiteSpace=wrap;html=1;" parent="pYM4KknxGki9qGqo0QUS-130" vertex="1">
          <mxGeometry y="26" width="160" height="26" as="geometry" />
        </mxCell>
        <mxCell id="pYM4KknxGki9qGqo0QUS-132" value="" style="line;strokeWidth=1;fillColor=none;align=left;verticalAlign=middle;spacingTop=-1;spacingLeft=3;spacingRight=3;rotatable=0;labelPosition=right;points=[];portConstraint=eastwest;strokeColor=inherit;" parent="pYM4KknxGki9qGqo0QUS-130" vertex="1">
          <mxGeometry y="52" width="160" height="8" as="geometry" />
        </mxCell>
        <mxCell id="pYM4KknxGki9qGqo0QUS-133" value="+ method(type): type" style="text;strokeColor=none;fillColor=none;align=left;verticalAlign=top;spacingLeft=4;spacingRight=4;overflow=hidden;rotatable=0;points=[[0,0.5],[1,0.5]];portConstraint=eastwest;whiteSpace=wrap;html=1;" parent="pYM4KknxGki9qGqo0QUS-130" vertex="1">
          <mxGeometry y="60" width="160" height="26" as="geometry" />
        </mxCell>
        <mxCell id="pYM4KknxGki9qGqo0QUS-134" value="MapsPage" style="swimlane;fontStyle=1;align=center;verticalAlign=top;childLayout=stackLayout;horizontal=1;startSize=26;horizontalStack=0;resizeParent=1;resizeParentMax=0;resizeLast=0;collapsible=1;marginBottom=0;whiteSpace=wrap;html=1;" parent="1" vertex="1">
          <mxGeometry x="280" y="-560" width="160" height="86" as="geometry" />
        </mxCell>
        <mxCell id="pYM4KknxGki9qGqo0QUS-135" value="+ field: type" style="text;strokeColor=none;fillColor=none;align=left;verticalAlign=top;spacingLeft=4;spacingRight=4;overflow=hidden;rotatable=0;points=[[0,0.5],[1,0.5]];portConstraint=eastwest;whiteSpace=wrap;html=1;" parent="pYM4KknxGki9qGqo0QUS-134" vertex="1">
          <mxGeometry y="26" width="160" height="26" as="geometry" />
        </mxCell>
        <mxCell id="pYM4KknxGki9qGqo0QUS-136" value="" style="line;strokeWidth=1;fillColor=none;align=left;verticalAlign=middle;spacingTop=-1;spacingLeft=3;spacingRight=3;rotatable=0;labelPosition=right;points=[];portConstraint=eastwest;strokeColor=inherit;" parent="pYM4KknxGki9qGqo0QUS-134" vertex="1">
          <mxGeometry y="52" width="160" height="8" as="geometry" />
        </mxCell>
        <mxCell id="pYM4KknxGki9qGqo0QUS-137" value="+ method(type): type" style="text;strokeColor=none;fillColor=none;align=left;verticalAlign=top;spacingLeft=4;spacingRight=4;overflow=hidden;rotatable=0;points=[[0,0.5],[1,0.5]];portConstraint=eastwest;whiteSpace=wrap;html=1;" parent="pYM4KknxGki9qGqo0QUS-134" vertex="1">
          <mxGeometry y="60" width="160" height="26" as="geometry" />
        </mxCell>
        <mxCell id="pYM4KknxGki9qGqo0QUS-138" value="LocalInfoPage" style="swimlane;fontStyle=1;align=center;verticalAlign=top;childLayout=stackLayout;horizontal=1;startSize=26;horizontalStack=0;resizeParent=1;resizeParentMax=0;resizeLast=0;collapsible=1;marginBottom=0;whiteSpace=wrap;html=1;" parent="1" vertex="1">
          <mxGeometry x="280" y="-400" width="160" height="86" as="geometry" />
        </mxCell>
        <mxCell id="pYM4KknxGki9qGqo0QUS-139" value="+ field: type" style="text;strokeColor=none;fillColor=none;align=left;verticalAlign=top;spacingLeft=4;spacingRight=4;overflow=hidden;rotatable=0;points=[[0,0.5],[1,0.5]];portConstraint=eastwest;whiteSpace=wrap;html=1;" parent="pYM4KknxGki9qGqo0QUS-138" vertex="1">
          <mxGeometry y="26" width="160" height="26" as="geometry" />
        </mxCell>
        <mxCell id="pYM4KknxGki9qGqo0QUS-140" value="" style="line;strokeWidth=1;fillColor=none;align=left;verticalAlign=middle;spacingTop=-1;spacingLeft=3;spacingRight=3;rotatable=0;labelPosition=right;points=[];portConstraint=eastwest;strokeColor=inherit;" parent="pYM4KknxGki9qGqo0QUS-138" vertex="1">
          <mxGeometry y="52" width="160" height="8" as="geometry" />
        </mxCell>
        <mxCell id="pYM4KknxGki9qGqo0QUS-141" value="+ method(type): type" style="text;strokeColor=none;fillColor=none;align=left;verticalAlign=top;spacingLeft=4;spacingRight=4;overflow=hidden;rotatable=0;points=[[0,0.5],[1,0.5]];portConstraint=eastwest;whiteSpace=wrap;html=1;" parent="pYM4KknxGki9qGqo0QUS-138" vertex="1">
          <mxGeometry y="60" width="160" height="26" as="geometry" />
        </mxCell>
        <mxCell id="pYM4KknxGki9qGqo0QUS-142" value="SchedulePage" style="swimlane;fontStyle=1;align=center;verticalAlign=top;childLayout=stackLayout;horizontal=1;startSize=26;horizontalStack=0;resizeParent=1;resizeParentMax=0;resizeLast=0;collapsible=1;marginBottom=0;whiteSpace=wrap;html=1;" parent="1" vertex="1">
          <mxGeometry x="280" y="-240" width="160" height="86" as="geometry" />
        </mxCell>
        <mxCell id="pYM4KknxGki9qGqo0QUS-143" value="+ field: type" style="text;strokeColor=none;fillColor=none;align=left;verticalAlign=top;spacingLeft=4;spacingRight=4;overflow=hidden;rotatable=0;points=[[0,0.5],[1,0.5]];portConstraint=eastwest;whiteSpace=wrap;html=1;" parent="pYM4KknxGki9qGqo0QUS-142" vertex="1">
          <mxGeometry y="26" width="160" height="26" as="geometry" />
        </mxCell>
        <mxCell id="pYM4KknxGki9qGqo0QUS-144" value="" style="line;strokeWidth=1;fillColor=none;align=left;verticalAlign=middle;spacingTop=-1;spacingLeft=3;spacingRight=3;rotatable=0;labelPosition=right;points=[];portConstraint=eastwest;strokeColor=inherit;" parent="pYM4KknxGki9qGqo0QUS-142" vertex="1">
          <mxGeometry y="52" width="160" height="8" as="geometry" />
        </mxCell>
        <mxCell id="pYM4KknxGki9qGqo0QUS-145" value="+ method(type): type" style="text;strokeColor=none;fillColor=none;align=left;verticalAlign=top;spacingLeft=4;spacingRight=4;overflow=hidden;rotatable=0;points=[[0,0.5],[1,0.5]];portConstraint=eastwest;whiteSpace=wrap;html=1;" parent="pYM4KknxGki9qGqo0QUS-142" vertex="1">
          <mxGeometry y="60" width="160" height="26" as="geometry" />
        </mxCell>
        <mxCell id="pYM4KknxGki9qGqo0QUS-146" value="Button&lt;span style=&quot;color: rgba(0, 0, 0, 0); font-family: monospace; font-size: 0px; font-weight: 400; text-align: start; text-wrap-mode: nowrap;&quot;&gt;%3CmxGraphModel%3E%3Croot%3E%3CmxCell%20id%3D%220%22%2F%3E%3CmxCell%20id%3D%221%22%20parent%3D%220%22%2F%3E%3CmxCell%20id%3D%222%22%20value%3D%22MapsPage%22%20style%3D%22swimlane%3BfontStyle%3D1%3Balign%3Dcenter%3BverticalAlign%3Dtop%3BchildLayout%3DstackLayout%3Bhorizontal%3D1%3BstartSize%3D26%3BhorizontalStack%3D0%3BresizeParent%3D1%3BresizeParentMax%3D0%3BresizeLast%3D0%3Bcollapsible%3D1%3BmarginBottom%3D0%3BwhiteSpace%3Dwrap%3Bhtml%3D1%3B%22%20vertex%3D%221%22%20parent%3D%221%22%3E%3CmxGeometry%20x%3D%22450%22%20y%3D%22-730%22%20width%3D%22160%22%20height%3D%2286%22%20as%3D%22geometry%22%2F%3E%3C%2FmxCell%3E%3CmxCell%20id%3D%223%22%20value%3D%22%2B%20field%3A%20type%22%20style%3D%22text%3BstrokeColor%3Dnone%3BfillColor%3Dnone%3Balign%3Dleft%3BverticalAlign%3Dtop%3BspacingLeft%3D4%3BspacingRight%3D4%3Boverflow%3Dhidden%3Brotatable%3D0%3Bpoints%3D%5B%5B0%2C0.5%5D%2C%5B1%2C0.5%5D%5D%3BportConstraint%3Deastwest%3BwhiteSpace%3Dwrap%3Bhtml%3D1%3B%22%20vertex%3D%221%22%20parent%3D%222%22%3E%3CmxGeometry%20y%3D%2226%22%20width%3D%22160%22%20height%3D%2226%22%20as%3D%22geometry%22%2F%3E%3C%2FmxCell%3E%3CmxCell%20id%3D%224%22%20value%3D%22%22%20style%3D%22line%3BstrokeWidth%3D1%3BfillColor%3Dnone%3Balign%3Dleft%3BverticalAlign%3Dmiddle%3BspacingTop%3D-1%3BspacingLeft%3D3%3BspacingRight%3D3%3Brotatable%3D0%3BlabelPosition%3Dright%3Bpoints%3D%5B%5D%3BportConstraint%3Deastwest%3BstrokeColor%3Dinherit%3B%22%20vertex%3D%221%22%20parent%3D%222%22%3E%3CmxGeometry%20y%3D%2252%22%20width%3D%22160%22%20height%3D%228%22%20as%3D%22geometry%22%2F%3E%3C%2FmxCell%3E%3CmxCell%20id%3D%225%22%20value%3D%22%2B%20method(type)%3A%20type%22%20style%3D%22text%3BstrokeColor%3Dnone%3BfillColor%3Dnone%3Balign%3Dleft%3BverticalAlign%3Dtop%3BspacingLeft%3D4%3BspacingRight%3D4%3Boverflow%3Dhidden%3Brotatable%3D0%3Bpoints%3D%5B%5B0%2C0.5%5D%2C%5B1%2C0.5%5D%5D%3BportConstraint%3Deastwest%3BwhiteSpace%3Dwrap%3Bhtml%3D1%3B%22%20vertex%3D%221%22%20parent%3D%222%22%3E%3CmxGeometry%20y%3D%2260%22%20width%3D%22160%22%20height%3D%2226%22%20as%3D%22geometry%22%2F%3E%3C%2FmxCell%3E%3C%2Froot%3E%3C%2FmxGraphModel%3E&lt;/span&gt;" style="swimlane;fontStyle=1;align=center;verticalAlign=top;childLayout=stackLayout;horizontal=1;startSize=26;horizontalStack=0;resizeParent=1;resizeParentMax=0;resizeLast=0;collapsible=1;marginBottom=0;whiteSpace=wrap;html=1;" parent="1" vertex="1">
          <mxGeometry x="520" y="-646" width="160" height="86" as="geometry" />
        </mxCell>
        <mxCell id="pYM4KknxGki9qGqo0QUS-147" value="+ field: type" style="text;strokeColor=none;fillColor=none;align=left;verticalAlign=top;spacingLeft=4;spacingRight=4;overflow=hidden;rotatable=0;points=[[0,0.5],[1,0.5]];portConstraint=eastwest;whiteSpace=wrap;html=1;" parent="pYM4KknxGki9qGqo0QUS-146" vertex="1">
          <mxGeometry y="26" width="160" height="26" as="geometry" />
        </mxCell>
        <mxCell id="pYM4KknxGki9qGqo0QUS-148" value="" style="line;strokeWidth=1;fillColor=none;align=left;verticalAlign=middle;spacingTop=-1;spacingLeft=3;spacingRight=3;rotatable=0;labelPosition=right;points=[];portConstraint=eastwest;strokeColor=inherit;" parent="pYM4KknxGki9qGqo0QUS-146" vertex="1">
          <mxGeometry y="52" width="160" height="8" as="geometry" />
        </mxCell>
        <mxCell id="pYM4KknxGki9qGqo0QUS-149" value="+ method(type): type" style="text;strokeColor=none;fillColor=none;align=left;verticalAlign=top;spacingLeft=4;spacingRight=4;overflow=hidden;rotatable=0;points=[[0,0.5],[1,0.5]];portConstraint=eastwest;whiteSpace=wrap;html=1;" parent="pYM4KknxGki9qGqo0QUS-146" vertex="1">
          <mxGeometry y="60" width="160" height="26" as="geometry" />
        </mxCell>
        <mxCell id="pYM4KknxGki9qGqo0QUS-154" value="TextBox" style="swimlane;fontStyle=1;align=center;verticalAlign=top;childLayout=stackLayout;horizontal=1;startSize=26;horizontalStack=0;resizeParent=1;resizeParentMax=0;resizeLast=0;collapsible=1;marginBottom=0;whiteSpace=wrap;html=1;" parent="1" vertex="1">
          <mxGeometry x="520" y="-400" width="160" height="86" as="geometry" />
        </mxCell>
        <mxCell id="pYM4KknxGki9qGqo0QUS-155" value="+ field: type" style="text;strokeColor=none;fillColor=none;align=left;verticalAlign=top;spacingLeft=4;spacingRight=4;overflow=hidden;rotatable=0;points=[[0,0.5],[1,0.5]];portConstraint=eastwest;whiteSpace=wrap;html=1;" parent="pYM4KknxGki9qGqo0QUS-154" vertex="1">
          <mxGeometry y="26" width="160" height="26" as="geometry" />
        </mxCell>
        <mxCell id="pYM4KknxGki9qGqo0QUS-156" value="" style="line;strokeWidth=1;fillColor=none;align=left;verticalAlign=middle;spacingTop=-1;spacingLeft=3;spacingRight=3;rotatable=0;labelPosition=right;points=[];portConstraint=eastwest;strokeColor=inherit;" parent="pYM4KknxGki9qGqo0QUS-154" vertex="1">
          <mxGeometry y="52" width="160" height="8" as="geometry" />
        </mxCell>
        <mxCell id="pYM4KknxGki9qGqo0QUS-157" value="+ method(type): type" style="text;strokeColor=none;fillColor=none;align=left;verticalAlign=top;spacingLeft=4;spacingRight=4;overflow=hidden;rotatable=0;points=[[0,0.5],[1,0.5]];portConstraint=eastwest;whiteSpace=wrap;html=1;" parent="pYM4KknxGki9qGqo0QUS-154" vertex="1">
          <mxGeometry y="60" width="160" height="26" as="geometry" />
        </mxCell>
        <mxCell id="5XCsOeMRBVbDpSjeDF1L-2" value="User" style="shape=umlActor;verticalLabelPosition=bottom;verticalAlign=top;html=1;outlineConnect=0;" vertex="1" parent="1">
          <mxGeometry x="190" y="-1200" width="30" height="60" as="geometry" />
        </mxCell>
        <mxCell id="5XCsOeMRBVbDpSjeDF1L-3" value="Rider" style="shape=umlActor;verticalLabelPosition=bottom;verticalAlign=top;html=1;outlineConnect=0;" vertex="1" parent="1">
          <mxGeometry x="190" y="-1100" width="30" height="60" as="geometry" />
        </mxCell>
        <mxCell id="5XCsOeMRBVbDpSjeDF1L-4" value="Volunteer" style="shape=umlActor;verticalLabelPosition=bottom;verticalAlign=top;html=1;outlineConnect=0;" vertex="1" parent="1">
          <mxGeometry x="190" y="-995" width="30" height="60" as="geometry" />
        </mxCell>
        <mxCell id="5XCsOeMRBVbDpSjeDF1L-10" value="Administrator" style="shape=umlActor;verticalLabelPosition=bottom;verticalAlign=top;html=1;outlineConnect=0;" vertex="1" parent="1">
          <mxGeometry x="190" y="-900" width="30" height="60" as="geometry" />
        </mxCell>
        <mxCell id="5XCsOeMRBVbDpSjeDF1L-14" value="database access" style="ellipse;whiteSpace=wrap;html=1;" vertex="1" parent="1">
          <mxGeometry x="500" y="-910" width="120" height="30" as="geometry" />
        </mxCell>
        <mxCell id="5XCsOeMRBVbDpSjeDF1L-15" value="SAG" style="ellipse;whiteSpace=wrap;html=1;" vertex="1" parent="1">
          <mxGeometry x="500" y="-960" width="120" height="30" as="geometry" />
        </mxCell>
        <mxCell id="5XCsOeMRBVbDpSjeDF1L-16" value="Register" style="ellipse;whiteSpace=wrap;html=1;" vertex="1" parent="1">
          <mxGeometry x="500" y="-1020" width="120" height="30" as="geometry" />
        </mxCell>
        <mxCell id="5XCsOeMRBVbDpSjeDF1L-17" value="maps" style="ellipse;whiteSpace=wrap;html=1;" vertex="1" parent="1">
          <mxGeometry x="500" y="-1070" width="120" height="30" as="geometry" />
        </mxCell>
        <mxCell id="5XCsOeMRBVbDpSjeDF1L-18" value="schedule" style="ellipse;whiteSpace=wrap;html=1;" vertex="1" parent="1">
          <mxGeometry x="500" y="-1120" width="120" height="30" as="geometry" />
        </mxCell>
        <mxCell id="5XCsOeMRBVbDpSjeDF1L-19" value="Login" style="ellipse;whiteSpace=wrap;html=1;" vertex="1" parent="1">
          <mxGeometry x="310" y="-980" width="120" height="30" as="geometry" />
        </mxCell>
        <mxCell id="5XCsOeMRBVbDpSjeDF1L-27" value="" style="endArrow=classic;html=1;rounded=0;exitX=0.5;exitY=0.5;exitDx=0;exitDy=0;exitPerimeter=0;entryX=0;entryY=0.5;entryDx=0;entryDy=0;fillColor=#d80073;strokeColor=#A50040;strokeWidth=3;" edge="1" parent="1" source="5XCsOeMRBVbDpSjeDF1L-4" target="5XCsOeMRBVbDpSjeDF1L-19">
          <mxGeometry width="50" height="50" relative="1" as="geometry">
            <mxPoint x="620" y="-1310" as="sourcePoint" />
            <mxPoint x="330" y="-1190" as="targetPoint" />
          </mxGeometry>
        </mxCell>
        <mxCell id="5XCsOeMRBVbDpSjeDF1L-39" value="" style="endArrow=classic;html=1;rounded=0;entryX=0;entryY=0.5;entryDx=0;entryDy=0;exitX=0.5;exitY=0.5;exitDx=0;exitDy=0;exitPerimeter=0;fillColor=#008a00;strokeColor=#005700;strokeWidth=3;" edge="1" parent="1" source="5XCsOeMRBVbDpSjeDF1L-2" target="5XCsOeMRBVbDpSjeDF1L-49">
          <mxGeometry width="50" height="50" relative="1" as="geometry">
            <mxPoint x="215" y="-1130" as="sourcePoint" />
            <mxPoint x="330" y="-1145" as="targetPoint" />
          </mxGeometry>
        </mxCell>
        <mxCell id="5XCsOeMRBVbDpSjeDF1L-42" value="" style="endArrow=classic;html=1;rounded=0;entryX=0;entryY=1;entryDx=0;entryDy=0;exitX=0.5;exitY=0.5;exitDx=0;exitDy=0;exitPerimeter=0;fillColor=#e51400;strokeColor=light-dark(#000000, #ffacac);strokeWidth=3;" edge="1" parent="1" source="5XCsOeMRBVbDpSjeDF1L-10" target="5XCsOeMRBVbDpSjeDF1L-19">
          <mxGeometry width="50" height="50" relative="1" as="geometry">
            <mxPoint x="595" y="-1020" as="sourcePoint" />
            <mxPoint x="432" y="-1034" as="targetPoint" />
          </mxGeometry>
        </mxCell>
        <mxCell id="5XCsOeMRBVbDpSjeDF1L-45" value="" style="endArrow=classic;html=1;rounded=0;exitX=0.5;exitY=0.5;exitDx=0;exitDy=0;exitPerimeter=0;entryX=0;entryY=0;entryDx=0;entryDy=0;fillColor=#0050ef;strokeColor=#001DBC;strokeWidth=3;" edge="1" parent="1" source="5XCsOeMRBVbDpSjeDF1L-3" target="5XCsOeMRBVbDpSjeDF1L-19">
          <mxGeometry width="50" height="50" relative="1" as="geometry">
            <mxPoint x="215" y="-1020" as="sourcePoint" />
            <mxPoint x="150" y="-1230" as="targetPoint" />
          </mxGeometry>
        </mxCell>
        <mxCell id="5XCsOeMRBVbDpSjeDF1L-46" value="&lt;h1 style=&quot;margin-top: 0px;&quot;&gt;Interaction Diagram&lt;/h1&gt;&lt;p&gt;&lt;br&gt;&lt;/p&gt;" style="text;html=1;whiteSpace=wrap;overflow=hidden;rounded=0;" vertex="1" parent="1">
          <mxGeometry x="260" y="-1290" width="240" height="40" as="geometry" />
        </mxCell>
        <mxCell id="5XCsOeMRBVbDpSjeDF1L-47" value="&lt;h1 style=&quot;margin-top: 0px;&quot;&gt;HHH APP&lt;/h1&gt;" style="text;html=1;whiteSpace=wrap;overflow=hidden;rounded=0;align=center;" vertex="1" parent="1">
          <mxGeometry x="260" y="-1370" width="240" height="70" as="geometry" />
        </mxCell>
        <mxCell id="5XCsOeMRBVbDpSjeDF1L-49" value="local info" style="ellipse;whiteSpace=wrap;html=1;" vertex="1" parent="1">
          <mxGeometry x="500" y="-1170" width="120" height="30" as="geometry" />
        </mxCell>
        <mxCell id="5XCsOeMRBVbDpSjeDF1L-51" value="" style="endArrow=classic;html=1;rounded=0;entryX=0;entryY=0.5;entryDx=0;entryDy=0;exitX=0.5;exitY=0.5;exitDx=0;exitDy=0;exitPerimeter=0;fillColor=#008a00;strokeColor=#005700;strokeWidth=3;" edge="1" parent="1" source="5XCsOeMRBVbDpSjeDF1L-2" target="5XCsOeMRBVbDpSjeDF1L-18">
          <mxGeometry width="50" height="50" relative="1" as="geometry">
            <mxPoint x="215" y="-1160" as="sourcePoint" />
            <mxPoint x="510" y="-1145" as="targetPoint" />
          </mxGeometry>
        </mxCell>
        <mxCell id="5XCsOeMRBVbDpSjeDF1L-52" value="" style="endArrow=classic;html=1;rounded=0;entryX=0;entryY=0.5;entryDx=0;entryDy=0;exitX=0.5;exitY=0.5;exitDx=0;exitDy=0;exitPerimeter=0;fillColor=#008a00;strokeColor=#005700;strokeWidth=3;" edge="1" parent="1" source="5XCsOeMRBVbDpSjeDF1L-2" target="5XCsOeMRBVbDpSjeDF1L-17">
          <mxGeometry width="50" height="50" relative="1" as="geometry">
            <mxPoint x="215" y="-1160" as="sourcePoint" />
            <mxPoint x="510" y="-1095" as="targetPoint" />
          </mxGeometry>
        </mxCell>
        <mxCell id="5XCsOeMRBVbDpSjeDF1L-53" value="" style="endArrow=classic;html=1;rounded=0;entryX=0;entryY=0.5;entryDx=0;entryDy=0;exitX=0.5;exitY=0.5;exitDx=0;exitDy=0;exitPerimeter=0;fillColor=#008a00;strokeColor=#005700;strokeWidth=3;" edge="1" parent="1" source="5XCsOeMRBVbDpSjeDF1L-2" target="5XCsOeMRBVbDpSjeDF1L-16">
          <mxGeometry width="50" height="50" relative="1" as="geometry">
            <mxPoint x="215" y="-1160" as="sourcePoint" />
            <mxPoint x="510" y="-1045" as="targetPoint" />
          </mxGeometry>
        </mxCell>
        <mxCell id="5XCsOeMRBVbDpSjeDF1L-54" value="" style="endArrow=classic;html=1;rounded=0;entryX=0.5;entryY=0;entryDx=0;entryDy=0;exitX=0;exitY=0.5;exitDx=0;exitDy=0;fillColor=#a20025;strokeColor=#6F0000;strokeWidth=3;" edge="1" parent="1" source="5XCsOeMRBVbDpSjeDF1L-16" target="5XCsOeMRBVbDpSjeDF1L-19">
          <mxGeometry width="50" height="50" relative="1" as="geometry">
            <mxPoint x="470" y="-970" as="sourcePoint" />
            <mxPoint x="510" y="-995" as="targetPoint" />
            <Array as="points" />
          </mxGeometry>
        </mxCell>
        <mxCell id="5XCsOeMRBVbDpSjeDF1L-55" value="" style="endArrow=classic;html=1;rounded=0;entryX=0.75;entryY=0.1;entryDx=0;entryDy=0;exitX=0;exitY=0.5;exitDx=0;exitDy=0;fillColor=#a20025;strokeColor=#6F0000;strokeWidth=3;entryPerimeter=0;" edge="1" parent="1" source="5XCsOeMRBVbDpSjeDF1L-16" target="5XCsOeMRBVbDpSjeDF1L-3">
          <mxGeometry width="50" height="50" relative="1" as="geometry">
            <mxPoint x="510" y="-995" as="sourcePoint" />
            <mxPoint x="440" y="-975" as="targetPoint" />
            <Array as="points" />
          </mxGeometry>
        </mxCell>
        <mxCell id="5XCsOeMRBVbDpSjeDF1L-56" value="" style="endArrow=classic;html=1;rounded=0;exitX=1;exitY=0.5;exitDx=0;exitDy=0;entryX=0;entryY=0;entryDx=0;entryDy=0;fillColor=#0050ef;strokeColor=#001DBC;strokeWidth=3;" edge="1" parent="1" source="5XCsOeMRBVbDpSjeDF1L-19" target="5XCsOeMRBVbDpSjeDF1L-15">
          <mxGeometry width="50" height="50" relative="1" as="geometry">
            <mxPoint x="390" y="-974" as="sourcePoint" />
            <mxPoint x="513" y="-940" as="targetPoint" />
          </mxGeometry>
        </mxCell>
        <mxCell id="5XCsOeMRBVbDpSjeDF1L-57" value="" style="endArrow=classic;html=1;rounded=0;exitX=1;exitY=0.5;exitDx=0;exitDy=0;entryX=0;entryY=0.5;entryDx=0;entryDy=0;fillColor=#0050ef;strokeColor=#001DBC;strokeWidth=3;" edge="1" parent="1" source="5XCsOeMRBVbDpSjeDF1L-19" target="5XCsOeMRBVbDpSjeDF1L-17">
          <mxGeometry width="50" height="50" relative="1" as="geometry">
            <mxPoint x="440" y="-975" as="sourcePoint" />
            <mxPoint x="510" y="-935" as="targetPoint" />
          </mxGeometry>
        </mxCell>
        <mxCell id="5XCsOeMRBVbDpSjeDF1L-58" value="" style="endArrow=classic;html=1;rounded=0;exitX=1;exitY=0.5;exitDx=0;exitDy=0;entryX=0;entryY=1;entryDx=0;entryDy=0;fillColor=#0050ef;strokeColor=#001DBC;strokeWidth=3;" edge="1" parent="1" source="5XCsOeMRBVbDpSjeDF1L-19" target="5XCsOeMRBVbDpSjeDF1L-16">
          <mxGeometry width="50" height="50" relative="1" as="geometry">
            <mxPoint x="440" y="-975" as="sourcePoint" />
            <mxPoint x="510" y="-1045" as="targetPoint" />
          </mxGeometry>
        </mxCell>
        <mxCell id="5XCsOeMRBVbDpSjeDF1L-59" value="" style="endArrow=classic;html=1;rounded=0;exitX=1;exitY=0.5;exitDx=0;exitDy=0;entryX=0;entryY=0.5;entryDx=0;entryDy=0;fillColor=#0050ef;strokeColor=#001DBC;strokeWidth=3;" edge="1" parent="1" source="5XCsOeMRBVbDpSjeDF1L-19" target="5XCsOeMRBVbDpSjeDF1L-18">
          <mxGeometry width="50" height="50" relative="1" as="geometry">
            <mxPoint x="440" y="-975" as="sourcePoint" />
            <mxPoint x="510" y="-1045" as="targetPoint" />
          </mxGeometry>
        </mxCell>
        <mxCell id="5XCsOeMRBVbDpSjeDF1L-60" value="" style="endArrow=classic;html=1;rounded=0;exitX=1;exitY=0.5;exitDx=0;exitDy=0;entryX=0;entryY=0.5;entryDx=0;entryDy=0;fillColor=#0050ef;strokeColor=#001DBC;strokeWidth=3;" edge="1" parent="1" source="5XCsOeMRBVbDpSjeDF1L-19" target="5XCsOeMRBVbDpSjeDF1L-49">
          <mxGeometry width="50" height="50" relative="1" as="geometry">
            <mxPoint x="440" y="-975" as="sourcePoint" />
            <mxPoint x="510" y="-1095" as="targetPoint" />
          </mxGeometry>
        </mxCell>
        <mxCell id="5XCsOeMRBVbDpSjeDF1L-61" value="" style="endArrow=classic;html=1;rounded=0;entryX=0;entryY=0.5;entryDx=0;entryDy=0;exitX=0.5;exitY=1;exitDx=0;exitDy=0;fillColor=#e51400;strokeColor=light-dark(#000000, #ffacac);strokeWidth=3;" edge="1" parent="1" source="5XCsOeMRBVbDpSjeDF1L-19" target="5XCsOeMRBVbDpSjeDF1L-14">
          <mxGeometry width="50" height="50" relative="1" as="geometry">
            <mxPoint x="205" y="-780" as="sourcePoint" />
            <mxPoint x="338" y="-944" as="targetPoint" />
          </mxGeometry>
        </mxCell>
        <mxCell id="5XCsOeMRBVbDpSjeDF1L-62" value="" style="endArrow=classic;html=1;rounded=0;entryX=0;entryY=1;entryDx=0;entryDy=0;exitX=0.5;exitY=1;exitDx=0;exitDy=0;fillColor=#e51400;strokeColor=light-dark(#000000, #ffacac);strokeWidth=3;" edge="1" parent="1" source="5XCsOeMRBVbDpSjeDF1L-19" target="5XCsOeMRBVbDpSjeDF1L-15">
          <mxGeometry width="50" height="50" relative="1" as="geometry">
            <mxPoint x="380" y="-940" as="sourcePoint" />
            <mxPoint x="510" y="-885" as="targetPoint" />
          </mxGeometry>
        </mxCell>
        <mxCell id="5XCsOeMRBVbDpSjeDF1L-63" value="" style="endArrow=classic;html=1;rounded=0;exitX=0.942;exitY=0.767;exitDx=0;exitDy=0;exitPerimeter=0;entryX=0;entryY=0.5;entryDx=0;entryDy=0;fillColor=#d80073;strokeColor=#A50040;strokeWidth=3;" edge="1" parent="1" source="5XCsOeMRBVbDpSjeDF1L-19" target="5XCsOeMRBVbDpSjeDF1L-15">
          <mxGeometry width="50" height="50" relative="1" as="geometry">
            <mxPoint x="360" y="-825" as="sourcePoint" />
            <mxPoint x="465" y="-880" as="targetPoint" />
            <Array as="points" />
          </mxGeometry>
        </mxCell>
        <mxCell id="5XCsOeMRBVbDpSjeDF1L-64" value="" style="endArrow=classic;html=1;rounded=0;exitX=0.933;exitY=0.833;exitDx=0;exitDy=0;exitPerimeter=0;entryX=0.067;entryY=0.133;entryDx=0;entryDy=0;fillColor=#d80073;strokeColor=#A50040;strokeWidth=3;entryPerimeter=0;" edge="1" parent="1" source="5XCsOeMRBVbDpSjeDF1L-19" target="5XCsOeMRBVbDpSjeDF1L-14">
          <mxGeometry width="50" height="50" relative="1" as="geometry">
            <mxPoint x="433" y="-947" as="sourcePoint" />
            <mxPoint x="510" y="-935" as="targetPoint" />
            <Array as="points" />
          </mxGeometry>
        </mxCell>
        <mxCell id="5XCsOeMRBVbDpSjeDF1L-66" value="«Mobile Interface»&lt;br&gt;&lt;b&gt;The Ride App&lt;/b&gt;" style="html=1;whiteSpace=wrap;" vertex="1" parent="1">
          <mxGeometry x="210" y="-2030" width="110" height="50" as="geometry" />
        </mxCell>
        <mxCell id="5XCsOeMRBVbDpSjeDF1L-67" value="«Desktop Interface»&lt;br&gt;&lt;b&gt;The Ride App&lt;/b&gt;" style="html=1;whiteSpace=wrap;" vertex="1" parent="1">
          <mxGeometry x="870" y="-2040" width="110" height="50" as="geometry" />
        </mxCell>
        <mxCell id="5XCsOeMRBVbDpSjeDF1L-68" value="HHH Event &amp;amp; Info" style="rounded=1;whiteSpace=wrap;html=1;" vertex="1" parent="1">
          <mxGeometry x="115" y="-1920" width="120" height="60" as="geometry" />
        </mxCell>
        <mxCell id="5XCsOeMRBVbDpSjeDF1L-70" value="Register" style="rounded=1;whiteSpace=wrap;html=1;" vertex="1" parent="1">
          <mxGeometry x="115" y="-1850" width="120" height="60" as="geometry" />
        </mxCell>
        <mxCell id="5XCsOeMRBVbDpSjeDF1L-71" value="Volunteer" style="rounded=1;whiteSpace=wrap;html=1;" vertex="1" parent="1">
          <mxGeometry x="115" y="-1780" width="120" height="60" as="geometry" />
        </mxCell>
        <mxCell id="5XCsOeMRBVbDpSjeDF1L-72" value="1st Open Home Screen - All Users" style="text;html=1;align=center;verticalAlign=middle;whiteSpace=wrap;rounded=0;" vertex="1" parent="1">
          <mxGeometry x="145" y="-1970" width="60" height="30" as="geometry" />
        </mxCell>
        <mxCell id="5XCsOeMRBVbDpSjeDF1L-73" value="Subsequent Home Screens Riders" style="text;html=1;align=center;verticalAlign=middle;whiteSpace=wrap;rounded=0;" vertex="1" parent="1">
          <mxGeometry x="530" y="-1980" width="60" height="30" as="geometry" />
        </mxCell>
        <mxCell id="5XCsOeMRBVbDpSjeDF1L-74" style="edgeStyle=orthogonalEdgeStyle;rounded=0;orthogonalLoop=1;jettySize=auto;html=1;exitX=1;exitY=0.5;exitDx=0;exitDy=0;entryX=1;entryY=0.75;entryDx=0;entryDy=0;" edge="1" parent="1" source="5XCsOeMRBVbDpSjeDF1L-72" target="5XCsOeMRBVbDpSjeDF1L-72">
          <mxGeometry relative="1" as="geometry" />
        </mxCell>
        <mxCell id="5XCsOeMRBVbDpSjeDF1L-75" value="Subsequent Home Screens - Spectators" style="text;html=1;align=center;verticalAlign=middle;whiteSpace=wrap;rounded=0;" vertex="1" parent="1">
          <mxGeometry x="390" y="-1980" width="60" height="30" as="geometry" />
        </mxCell>
        <mxCell id="5XCsOeMRBVbDpSjeDF1L-76" value="Subsequent Home Screens Volunteer/Admin" style="text;html=1;align=center;verticalAlign=middle;whiteSpace=wrap;rounded=0;" vertex="1" parent="1">
          <mxGeometry x="670" y="-1980" width="60" height="30" as="geometry" />
        </mxCell>
        <mxCell id="5XCsOeMRBVbDpSjeDF1L-77" value="HHH Event &amp;amp; Info" style="rounded=1;whiteSpace=wrap;html=1;" vertex="1" parent="1">
          <mxGeometry x="360" y="-1920" width="120" height="60" as="geometry" />
        </mxCell>
        <mxCell id="5XCsOeMRBVbDpSjeDF1L-78" value="Register" style="rounded=1;whiteSpace=wrap;html=1;" vertex="1" parent="1">
          <mxGeometry x="360" y="-1850" width="120" height="60" as="geometry" />
        </mxCell>
        <mxCell id="5XCsOeMRBVbDpSjeDF1L-79" value="Volunteer" style="rounded=1;whiteSpace=wrap;html=1;" vertex="1" parent="1">
          <mxGeometry x="360" y="-1780" width="120" height="60" as="geometry" />
        </mxCell>
        <mxCell id="5XCsOeMRBVbDpSjeDF1L-80" value="HHH Event &amp;amp; Info" style="rounded=1;whiteSpace=wrap;html=1;" vertex="1" parent="1">
          <mxGeometry x="500" y="-1920" width="120" height="60" as="geometry" />
        </mxCell>
        <mxCell id="5XCsOeMRBVbDpSjeDF1L-81" value="Register for Additional Events" style="rounded=1;whiteSpace=wrap;html=1;" vertex="1" parent="1">
          <mxGeometry x="500" y="-1850" width="120" height="60" as="geometry" />
        </mxCell>
        <mxCell id="5XCsOeMRBVbDpSjeDF1L-83" value="HHH Event &amp;amp; Info" style="rounded=1;whiteSpace=wrap;html=1;" vertex="1" parent="1">
          <mxGeometry x="640" y="-1920" width="120" height="60" as="geometry" />
        </mxCell>
        <mxCell id="5XCsOeMRBVbDpSjeDF1L-84" value="Login" style="rounded=1;whiteSpace=wrap;html=1;" vertex="1" parent="1">
          <mxGeometry x="640" y="-1850" width="120" height="60" as="geometry" />
        </mxCell>
        <mxCell id="5XCsOeMRBVbDpSjeDF1L-86" value="Login" style="rounded=1;whiteSpace=wrap;html=1;" vertex="1" parent="1">
          <mxGeometry x="910" y="-1890" width="120" height="60" as="geometry" />
        </mxCell>
        <mxCell id="5XCsOeMRBVbDpSjeDF1L-91" value="name" style="endArrow=block;endFill=1;html=1;edgeStyle=orthogonalEdgeStyle;align=left;verticalAlign=top;rounded=0;entryX=0.999;entryY=0.023;entryDx=0;entryDy=0;entryPerimeter=0;exitX=-0.009;exitY=0.114;exitDx=0;exitDy=0;exitPerimeter=0;" edge="1" parent="1" source="pYM4KknxGki9qGqo0QUS-47" target="pYM4KknxGki9qGqo0QUS-39">
          <mxGeometry x="-1" relative="1" as="geometry">
            <mxPoint x="340" y="480" as="sourcePoint" />
            <mxPoint x="290" y="480" as="targetPoint" />
          </mxGeometry>
        </mxCell>
        <mxCell id="5XCsOeMRBVbDpSjeDF1L-92" value="1" style="edgeLabel;resizable=0;html=1;align=left;verticalAlign=bottom;" connectable="0" vertex="1" parent="5XCsOeMRBVbDpSjeDF1L-91">
          <mxGeometry x="-1" relative="1" as="geometry" />
        </mxCell>
      </root>
    </mxGraphModel>
  </diagram>
</mxfile>
